<?xml version="1.0" encoding="UTF-8" standalone="no"?>
<!-- Created with Inkscape (http://www.inkscape.org/) -->

<svg
   xmlns:dc="http://purl.org/dc/elements/1.1/"
   xmlns:cc="http://creativecommons.org/ns#"
   xmlns:rdf="http://www.w3.org/1999/02/22-rdf-syntax-ns#"
   xmlns:svg="http://www.w3.org/2000/svg"
   xmlns="http://www.w3.org/2000/svg"
   xmlns:sodipodi="http://sodipodi.sourceforge.net/DTD/sodipodi-0.dtd"
   xmlns:inkscape="http://www.inkscape.org/namespaces/inkscape"
   width="210mm"
   height="148mm"
   viewBox="0 0 210 148"
   version="1.1"
   id="svg8"
   inkscape:version="0.92.4 (5da689c313, 2019-01-14)"
   sodipodi:docname="Rps.svg">
  <defs
     id="defs2" />
  <sodipodi:namedview
     id="base"
     pagecolor="#ffffff"
     bordercolor="#666666"
     borderopacity="1.0"
     inkscape:pageopacity="0.0"
     inkscape:pageshadow="2"
     inkscape:zoom="0.7"
     inkscape:cx="587.76578"
     inkscape:cy="222.01508"
     inkscape:document-units="mm"
     inkscape:current-layer="layer1"
     showgrid="false"
     inkscape:window-width="1920"
     inkscape:window-height="1017"
     inkscape:window-x="-8"
     inkscape:window-y="-8"
     inkscape:window-maximized="1" />
  <metadata
     id="metadata5">
    <rdf:RDF>
      <cc:Work
         rdf:about="">
        <dc:format>image/svg+xml</dc:format>
        <dc:type
           rdf:resource="http://purl.org/dc/dcmitype/StillImage" />
        <dc:title></dc:title>
      </cc:Work>
    </rdf:RDF>
  </metadata>
  <g
     inkscape:label="Layer 1"
     inkscape:groupmode="layer"
     id="layer1"
     transform="translate(0,-149)">
    <path
       inkscape:connector-curvature="0"
       id="path870"
       d="m -411.61607,304.55953 v -47.625 h 71.4375 71.4375 v 47.625 47.625 h -71.4375 -71.4375 z"
       style="fill:#fdfcfc;stroke-width:0.26458332" />
    <path
       inkscape:connector-curvature="0"
       id="path868"
       d="m -392.77381,351.06005 c -0.46322,-0.56212 -2.96726,-6.06756 -2.96726,-6.52388 0,-0.23699 -0.29804,-0.8695 -0.66232,-1.40557 -0.83615,-1.23051 -2.53372,-4.92345 -2.59711,-5.64981 -0.0263,-0.30169 -0.23676,-0.73722 -0.46763,-0.96783 -0.23087,-0.23062 -1.22529,-2.18644 -2.20982,-4.34626 -0.98453,-2.15983 -1.96761,-4.28415 -2.18461,-4.72071 -0.217,-0.43656 -1.08429,-2.28203 -1.92731,-4.10104 -0.84302,-1.81901 -2.01116,-4.31933 -2.59586,-5.55625 -0.58471,-1.23693 -1.10425,-2.48709 -1.15454,-2.77813 -0.076,-0.43967 0.44584,-0.79765 3.08526,-2.11667 1.74718,-0.87312 4.96187,-2.41135 7.14375,-3.41828 3.64698,-1.68307 13.97712,-6.49225 19.04832,-8.86791 1.16416,-0.54537 4.25979,-1.97961 6.87916,-3.18722 2.61938,-1.2076 5.53641,-2.55911 6.48229,-3.00335 0.94589,-0.44424 2.25558,-1.04154 2.91042,-1.32733 0.65484,-0.2858 1.36922,-0.62028 1.5875,-0.74329 0.21828,-0.12302 0.635,-0.32957 0.92604,-0.45899 0.29104,-0.12943 1.6768,-0.78399 3.07946,-1.45458 1.40266,-0.67059 2.72754,-1.21925 2.94417,-1.21925 0.21663,0 0.53146,-0.16579 0.69962,-0.36841 0.16817,-0.20263 0.68876,-0.51879 1.15688,-0.70259 0.46812,-0.1838 2.04175,-0.89994 3.49696,-1.59142 4.60329,-2.18737 6.21971,-2.89383 6.6212,-2.89383 0.21464,0 0.39025,-0.1168 0.39025,-0.25955 0,-0.14274 0.32743,-0.3382 0.72761,-0.43435 0.40018,-0.0961 1.20385,-0.44513 1.78594,-0.77552 0.58208,-0.3304 5.46364,-2.64601 10.84791,-5.14581 5.38427,-2.4998 11.03974,-5.14314 12.56771,-5.87409 1.52797,-0.73095 3.40781,-1.54879 4.17742,-1.81744 0.76961,-0.26865 1.72211,-0.70817 2.11667,-0.97672 0.39455,-0.26855 2.74143,-1.42329 5.21529,-2.56609 2.47385,-1.1428 5.56947,-2.58171 6.87916,-3.19759 5.23859,-2.46344 6.50584,-3.02993 6.77798,-3.02993 0.15625,0 0.60012,-0.21479 0.98639,-0.47732 0.38626,-0.26253 1.20558,-0.6961 1.8207,-0.96349 1.35282,-0.58805 1.57614,-0.45187 2.45739,1.49855 0.34728,0.76861 1.44097,3.10044 2.43042,5.18185 0.98945,2.08141 1.799,3.8333 1.799,3.89307 0,0.0598 0.66649,1.51197 1.48109,3.22708 0.81461,1.71511 2.31522,4.90433 3.33469,7.08714 1.01947,2.18281 2.32922,4.98078 2.91056,6.21771 4.65243,9.89902 4.29743,8.9973 3.75107,9.52809 -0.27346,0.26567 -2.87845,1.57786 -5.78887,2.91599 -2.91042,1.33812 -6.3037,2.91015 -7.54063,3.4934 -1.23692,0.58325 -3.97536,1.86496 -6.08541,2.84825 -2.11005,0.98329 -6.75349,3.15572 -10.31875,4.82763 -3.56526,1.67191 -7.07761,3.30761 -7.80521,3.63488 -0.72761,0.32728 -2.18612,0.99781 -3.24115,1.49007 -1.05502,0.49226 -2.84096,1.31983 -3.96875,1.83905 -1.12778,0.51921 -2.52677,1.16579 -3.10885,1.43683 -0.58209,0.27105 -1.71318,0.79758 -2.51354,1.17008 -0.80037,0.37251 -2.9384,1.3928 -4.75118,2.26733 -1.81278,0.87454 -3.53151,1.59006 -3.8194,1.59006 -0.2879,0 -0.76924,0.22185 -1.06966,0.49301 -0.30042,0.27115 -2.68935,1.47867 -5.30872,2.68338 -5.48817,2.52414 -8.24464,3.80714 -11.77396,5.48021 -1.38245,0.65535 -4.95432,2.32374 -7.9375,3.70752 -2.98318,1.38379 -6.89366,3.21608 -8.68997,4.07176 -1.7963,0.85569 -3.32103,1.55579 -3.38828,1.55579 -0.0672,0 -0.80666,0.33957 -1.64315,0.75459 -0.83649,0.41503 -1.96091,0.83714 -2.4987,0.93803 -0.5378,0.1009 -0.97782,0.30366 -0.97782,0.45059 0,0.14694 -0.62507,0.5442 -1.38906,0.8828 -0.76398,0.3386 -3.71078,1.7176 -6.54844,3.06443 -5.91752,2.80862 -10.81392,5.02206 -11.10941,5.02206 -0.11158,0 -0.32552,-0.14883 -0.47541,-0.33073 z m 5.72414,-7.36485 c 1.54989,-0.74007 4.0086,-1.8879 5.46381,-2.55072 1.45521,-0.66283 3.71739,-1.71109 5.02708,-2.32949 6.17967,-2.91783 14.98022,-7.00338 15.08578,-7.00338 0.0536,0 2.19948,-1.01268 4.76865,-2.2504 2.56917,-1.23772 4.987,-2.32527 5.37297,-2.41679 0.38597,-0.0915 0.88036,-0.3138 1.09864,-0.49399 0.37402,-0.30874 3.18885,-1.65459 12.17084,-5.81922 2.11005,-0.97836 5.74146,-2.67711 8.06979,-3.775 2.32833,-1.0979 4.59052,-2.13169 5.02708,-2.29733 0.43656,-0.16563 1.62719,-0.72234 2.64584,-1.23715 1.01864,-0.51479 2.68552,-1.27545 3.70416,-1.69034 1.01865,-0.4149 2.04005,-0.9111 2.26979,-1.10269 0.22974,-0.19158 0.49944,-0.34834 0.59933,-0.34834 0.0999,0 1.79881,-0.7739 3.77537,-1.71979 1.97657,-0.94588 3.65347,-1.71979 3.72646,-1.71979 0.073,0 1.40078,-0.60682 2.95066,-1.34848 1.54989,-0.74167 8.05673,-3.78372 14.45964,-6.76013 9.77873,-4.54566 13.39063,-6.26323 13.82624,-6.57481 0.0635,-0.0454 -6.29604,-13.78574 -9.24603,-19.977 -0.72804,-1.52797 -1.62303,-3.52332 -1.98885,-4.43412 -0.36583,-0.91081 -0.77112,-1.72151 -0.90065,-1.80156 -0.12952,-0.08 -0.2355,-0.35819 -0.2355,-0.61809 0,-0.2599 -0.21195,-0.66436 -0.47099,-0.89879 -0.43864,-0.39696 -1.02492,-0.17007 -8.53282,3.30217 -4.434,2.05063 -9.01431,4.18029 -10.17848,4.73258 -8.11025,3.84758 -9.47967,4.48031 -9.69677,4.48031 -0.13405,0 -0.50743,0.16825 -0.82973,0.37388 -0.3223,0.20563 -8.68225,4.14732 -18.57767,8.75931 -9.89541,4.61199 -18.98097,8.84906 -20.19012,9.41571 -1.20915,0.56665 -2.26211,1.03027 -2.3399,1.03027 -0.0778,0 -1.46973,0.64263 -3.0932,1.42807 -1.62348,0.78544 -3.66615,1.75265 -4.53928,2.14936 -0.87312,0.39671 -2.65906,1.23048 -3.96875,1.85283 -7.50576,3.56664 -8.85188,4.19154 -10.05416,4.66736 -0.72761,0.28796 -1.43603,0.6341 -1.57428,0.76922 -0.13824,0.13511 -0.51527,0.24566 -0.83784,0.24566 -0.32257,0 -0.62618,0.11405 -0.67469,0.25345 -0.0485,0.13939 -4.19585,2.17501 -9.21632,4.52358 -5.02047,2.34858 -9.15867,4.29905 -9.19599,4.33439 -0.0373,0.0353 0.68811,1.66089 1.61209,3.61235 0.92398,1.95146 1.89743,4.14342 2.16323,4.87102 0.2658,0.72761 0.62639,1.50151 0.80132,1.71979 0.17494,0.21828 1.47895,2.89719 2.89782,5.95313 1.41887,3.05594 3.0415,6.54555 3.60585,7.75471 0.56435,1.20915 1.0261,2.26666 1.0261,2.35002 0,0.23837 1.08584,1.93381 1.2385,1.93381 0.0754,0 1.4051,-0.60551 2.95498,-1.34558 z m -2.34844,-8.87748 c -0.86925,-1.83914 -1.58046,-3.41253 -1.58046,-3.49643 0,-0.0839 -0.46582,-1.10922 -1.03515,-2.2785 -2.79968,-5.74994 -4.25652,-8.98377 -4.25652,-9.44848 0,-0.57651 2.17446,-1.70006 2.68252,-1.38607 0.27166,0.1679 0.87836,1.38827 3.90445,7.85381 0.59727,1.27612 1.08595,2.4727 1.08595,2.65906 0,0.18636 0.12401,0.46285 0.27559,0.61442 0.3523,0.3523 3.17961,6.38758 3.35379,7.15912 0.10108,0.44775 -0.0735,0.70689 -0.75681,1.12349 -1.72649,1.05257 -1.92315,0.90265 -3.67336,-2.80042 z m 5.27454,-1.08788 c -0.5765,-1.2733 -1.23767,-2.67229 -1.46926,-3.10885 -0.40307,-0.75978 -2.72956,-5.76325 -4.36738,-9.39271 -0.42683,-0.94589 -0.96321,-2.08165 -1.19193,-2.52393 -0.62507,-1.20864 -0.38593,-1.76403 1.05605,-2.45264 1.58284,-0.75588 1.13929,-1.04146 6.6575,4.28654 2.32799,2.24774 4.27149,4.04801 4.3189,4.00059 0.0474,-0.0474 -0.33926,-1.00704 -0.85926,-2.13252 -0.52,-1.12547 -0.94545,-2.169 -0.94545,-2.31895 0,-0.14995 -0.15656,-0.4606 -0.3479,-0.69034 -0.50067,-0.60113 -2.56252,-5.19022 -2.56252,-5.70344 0,-0.25994 0.48799,-0.64843 1.22281,-0.97347 1.18915,-0.52602 1.23551,-0.52743 1.68458,-0.0513 0.25398,0.2693 1.55945,2.87089 2.90105,5.7813 1.3416,2.91042 2.89762,6.24417 3.45782,7.40834 1.48616,3.0884 2.11082,4.61208 2.11082,5.14873 0,0.57834 -2.46476,1.72832 -3.02117,1.40958 -0.2,-0.11457 -2.34978,-2.11331 -4.7773,-4.44164 -2.42752,-2.32834 -4.48148,-4.29287 -4.56437,-4.36563 -0.36102,-0.31691 0.28219,1.22829 2.31285,5.55625 1.19487,2.54661 2.2321,4.89651 2.30495,5.22199 0.11184,0.49962 -0.0611,0.67474 -1.11026,1.12448 -0.68351,0.29298 -1.35965,0.5327 -1.50254,0.5327 -0.1429,0 -0.7315,-1.0418 -1.30799,-2.31511 z m 18.16853,-6.21692 c -0.21433,-0.32785 -0.94617,-1.78672 -1.6263,-3.24193 -0.68014,-1.45521 -1.57289,-3.36021 -1.98389,-4.23333 -3.13129,-6.65209 -4.74459,-10.28545 -4.74459,-10.68543 0,-0.31095 0.46794,-0.67674 1.38906,-1.08583 0.76399,-0.3393 1.87314,-0.8359 2.46479,-1.10356 0.59164,-0.26765 1.51912,-0.48664 2.06106,-0.48664 2.94915,0 5.95016,3.68495 6.20974,7.62496 0.15117,2.29456 -0.40821,3.47542 -2.21422,4.67417 -1.37735,0.91424 -1.38333,0.92419 -1.07165,1.7846 0.17238,0.47587 0.81402,1.84485 1.42586,3.04216 0.61185,1.19732 1.11244,2.3436 1.11244,2.5473 0,0.47603 -0.46412,0.85358 -1.66732,1.35631 -0.92731,0.38746 -0.98061,0.37987 -1.35498,-0.19278 z m -0.53755,-12.49032 c 0.81011,-0.8101 0.82384,-1.65848 0.0456,-2.81717 -0.46655,-0.69464 -0.81241,-0.91472 -1.52135,-0.96808 -1.65053,-0.12422 -1.79586,0.20889 -0.91779,2.10378 1.22772,2.64947 1.34391,2.73109 2.39353,1.68147 z m 10.10032,8.42462 c -0.10475,-0.10476 -0.19047,-0.38011 -0.19047,-0.61189 0,-0.23179 -0.23812,-0.57014 -0.52916,-0.7519 -0.29104,-0.18176 -0.52917,-0.44898 -0.52917,-0.59382 0,-0.14484 -0.54503,-1.42376 -1.21118,-2.84203 -0.66614,-1.41827 -1.4908,-3.17399 -1.83255,-3.90159 -0.34177,-0.72761 -1.40856,-2.96755 -2.37066,-4.97766 -0.96211,-2.01011 -1.81923,-4.00451 -1.90473,-4.432 -0.14516,-0.72582 -0.0701,-0.81393 1.13444,-1.33149 0.70944,-0.30482 1.78616,-0.78688 2.39271,-1.07122 3.33191,-1.56196 6.07249,-0.31634 8.02353,3.64679 1.30758,2.65606 1.34502,4.47684 0.14979,7.28379 -0.13994,0.32866 0.17142,0.72155 1.22114,1.54088 3.33829,2.60566 4.448,3.59934 4.44978,3.98454 0.002,0.4328 -2.06864,1.57408 -2.85588,1.57408 -0.2543,0 -1.47088,-0.83532 -2.70351,-1.85626 -1.23263,-1.02094 -2.27812,-1.74533 -2.3233,-1.60976 -0.0452,0.13557 0.34113,1.10301 0.8585,2.14986 1.09858,2.22288 1.15447,2.75317 0.34536,3.27651 -0.7632,0.49365 -1.87933,0.76848 -2.12464,0.52317 z m -0.36139,-12.12818 c 1.05,-0.97311 0.88963,-2.8658 -0.34768,-4.10311 -0.61401,-0.61401 -2.04231,-0.72134 -2.74655,-0.20639 -0.42395,0.31 -0.395,0.4721 0.41338,2.3151 1.33263,3.0382 1.45574,3.12978 2.68085,1.9944 z m 12.02898,5.56935 c -4.17467,-1.49083 -8.00962,-7.02395 -8.23809,-11.88605 -0.16978,-3.61279 0.61082,-5.84029 2.62504,-7.4908 1.11029,-0.90979 1.40725,-1.01829 3.03962,-1.11052 1.58223,-0.0894 2.01769,-0.003 3.47214,0.68797 2.04473,0.97157 3.61895,2.31419 4.73764,4.04062 0.46783,0.72198 0.88579,1.2775 0.92881,1.23448 0.043,-0.043 -0.096,-0.65712 -0.30896,-1.36468 -0.45221,-1.50259 -0.50891,-4.9838 -0.10709,-6.57532 0.41448,-1.64168 1.84751,-3.45289 3.28092,-4.1468 1.62258,-0.78547 4.1923,-0.67637 6.04491,0.25665 1.55175,0.78151 3.45473,2.491 3.29918,2.96372 -0.15179,0.46126 -2.04953,1.52704 -2.72884,1.53252 -0.29665,0.002 -1.00643,-0.23377 -1.57729,-0.52482 -3.42899,-1.74819 -6.02255,1.35753 -4.77215,5.71451 0.54174,1.88765 1.3584,3.31023 2.74385,4.77966 0.89974,0.95428 1.23606,1.12614 2.51694,1.28618 1.94195,0.24263 2.88186,-0.29405 3.9168,-2.23644 1.10796,-2.07944 0.72959,-2.22729 -2.12248,-0.82933 -1.28986,0.63224 -2.4823,1.0648 -2.64985,0.96125 -0.49841,-0.30803 -1.65514,-2.79759 -1.56688,-3.3723 0.0609,-0.39683 0.88798,-0.89815 3.25668,-1.97404 1.74625,-0.79318 3.49103,-1.61554 3.87728,-1.82748 1.13235,-0.62132 1.53631,-0.47699 2.06879,0.73914 1.62034,3.70065 1.2243,8.73799 -0.86576,11.01193 -0.88885,0.96704 -3.05319,1.88097 -4.46145,1.88392 -2.7459,0.006 -6.39612,-2.34971 -8.07147,-5.20847 -0.37481,-0.63957 -0.72217,-1.12215 -0.77191,-1.0724 -0.0497,0.0497 0.0688,0.62067 0.26346,1.26872 0.63368,2.10975 0.76816,3.86744 0.35869,4.68823 -0.20549,0.41192 -0.3231,1.18171 -0.26135,1.71065 0.19586,1.67771 -1.70819,4.17894 -3.78119,4.96709 -0.95429,0.36282 -2.97531,0.31028 -4.14599,-0.10779 z m 2.96727,-4.26355 c 1.00434,-0.51936 1.52795,-1.56406 1.81706,-3.62537 0.23011,-1.64066 0.21796,-1.69127 -0.95436,-3.97492 -1.51259,-2.94647 -3.19657,-4.43377 -5.0201,-4.43377 -2.4639,0 -3.40279,1.21399 -3.37635,4.36562 0.0265,3.15585 1.93916,6.38451 4.48238,7.56636 1.29368,0.60118 2.03806,0.62608 3.05137,0.10208 z m 23.16583,-7.33771 c -0.65534,-1.01166 -8.35782,-17.69665 -8.35782,-18.10455 0,-0.54248 4.35946,-2.5297 5.86964,-2.67562 1.75115,-0.1692 3.39488,0.67747 4.70266,2.42229 1.37047,1.82847 1.85078,3.08908 2.02384,5.31164 0.12168,1.56281 0.0557,2.03865 -0.40453,2.91573 -0.30247,0.57647 -0.54995,1.12127 -0.54995,1.21066 0,0.0894 1.30715,1.16554 2.90478,2.39145 3.4356,2.63624 3.60842,3.05654 1.61024,3.91614 -0.7182,0.30896 -1.4478,0.56174 -1.62133,0.56174 -0.17354,0 -1.31986,-0.84575 -2.54738,-1.87944 -1.22753,-1.03369 -2.28802,-1.82329 -2.35664,-1.75467 -0.0686,0.0686 0.2961,1.0483 0.81049,2.17706 0.5144,1.12875 0.93526,2.27312 0.93526,2.54304 0,0.30535 -0.39585,0.69271 -1.04779,1.0253 -1.322,0.67443 -1.49876,0.66899 -1.97147,-0.0608 z m -0.39466,-11.50047 c 1.31472,-0.77662 1.47256,-2.49109 0.36323,-3.94548 -0.836,-1.09606 -1.44208,-1.27645 -2.62625,-0.78167 -0.95207,0.3978 -0.95282,0.39943 -0.5841,1.26843 0.58929,1.38889 1.86381,3.91284 1.97586,3.91284 0.0564,0 0.44844,-0.20435 0.87126,-0.45412 z m 10.0256,6.73797 c -0.28836,-0.47294 -0.52473,-1.05367 -0.52527,-1.29052 -5.3e-4,-0.23684 -0.17959,-0.57884 -0.39787,-0.76 -0.21828,-0.18115 -0.39687,-0.42677 -0.39687,-0.5458 0,-0.11904 -0.58058,-1.44391 -1.29018,-2.94417 -2.80047,-5.92086 -3.55416,-7.53666 -4.04914,-8.68086 -0.28328,-0.65484 -0.7703,-1.70377 -1.08226,-2.33094 -0.39628,-0.79668 -0.49089,-1.26051 -0.31396,-1.53919 0.36507,-0.57503 6.40382,-3.356 6.88579,-3.17105 0.52828,0.20272 1.79562,2.97555 1.5968,3.49366 -0.0844,0.22002 -0.98831,0.76877 -2.00862,1.21943 -1.0203,0.45066 -1.8551,0.92411 -1.8551,1.05211 0,0.32358 1.56447,3.39265 1.72941,3.39265 0.0739,0 0.91004,-0.35174 1.85818,-0.78165 0.94813,-0.4299 1.87866,-0.72225 2.06785,-0.64965 0.50418,0.19347 1.85828,3.16339 1.6189,3.55071 -0.11136,0.18019 -0.96021,0.67119 -1.88632,1.09111 -0.99767,0.45236 -1.68385,0.92774 -1.68385,1.16653 0,0.31512 1.15619,2.89707 1.44896,3.23574 0.0343,0.0397 0.8704,-0.29037 1.85797,-0.73347 1.07969,-0.48442 2.00194,-0.74013 2.31315,-0.64136 0.3001,0.0953 0.79399,0.78935 1.1755,1.652 l 0.65794,1.48774 -0.6179,0.51005 c -0.33986,0.28052 -1.39182,0.85875 -2.33771,1.28494 -0.94588,0.42618 -2.20386,1.00371 -2.79551,1.28339 -0.59165,0.27968 -1.15895,0.5085 -1.26066,0.5085 -0.10172,0 -0.42087,-0.38695 -0.70923,-0.8599 z m 10.02666,-4.25533 c -1.44846,-0.53624 -2.47982,-1.36992 -3.38457,-2.73584 -0.45009,-0.67951 -0.81835,-1.33139 -0.81835,-1.44861 0,-0.3394 1.14322,-0.99636 2.04915,-1.17754 0.67806,-0.13562 0.94872,-0.039 1.47172,0.52531 1.26496,1.36492 2.90557,0.49876 2.45507,-1.29616 -0.31489,-1.25461 -1.25088,-1.91758 -2.96388,-2.09933 -2.44059,-0.25894 -3.49363,-0.63389 -4.60813,-1.64077 -3.06919,-2.77283 -3.51418,-8.60374 -0.76509,-10.02534 1.32329,-0.6843 3.42774,-0.42069 4.67886,0.5861 1.16544,0.93783 2.18021,2.34744 2.18021,3.02849 0,1.11039 -2.90827,1.75419 -3.43958,0.76142 -0.37146,-0.69408 -1.49675,-0.70275 -1.7156,-0.0132 -0.17144,0.54017 0.37441,1.84012 0.97055,2.31136 0.1915,0.15137 1.14296,0.34575 2.11437,0.43195 0.97141,0.0862 2.18819,0.33305 2.70394,0.54854 1.06278,0.44406 2.80591,2.07459 2.80591,2.62467 0,0.5515 0.96392,1.34267 1.19006,0.97678 0.17616,-0.28503 0.66905,-0.52044 1.87533,-0.89566 0.40005,-0.12444 0.78147,0.0478 1.38665,0.62613 0.95932,0.91677 1.75882,1.02297 2.15323,0.28601 0.37918,-0.70851 0.34241,-1.49867 -0.1105,-2.37452 -0.45324,-0.87644 -1.31136,-1.24729 -3.37598,-1.45896 -2.81956,-0.28906 -4.34346,-1.33437 -5.5644,-3.81686 -0.74202,-1.50874 -0.86168,-2.02981 -0.86168,-3.75214 0,-2.82707 0.94382,-4.10063 3.27019,-4.41266 1.35793,-0.18214 3.53028,0.96069 4.58076,2.40984 1.0224,1.41042 0.97545,2.06893 -0.18702,2.62328 -1.26973,0.60549 -1.77398,0.56209 -2.50456,-0.21558 -0.34178,-0.3638 -0.77506,-0.66146 -0.96285,-0.66146 -0.54219,0 -0.91993,0.9436 -0.65505,1.63632 0.40104,1.04882 1.15487,1.48983 3.07311,1.79784 2.95131,0.4739 3.01541,0.49853 4.24317,1.63024 1.21557,1.12047 2.41485,3.28817 2.64681,4.78408 0.43139,2.78212 0.42228,2.97982 -0.19217,4.1723 -1.51035,2.93117 -4.73838,3.18419 -7.4575,0.58453 l -1.02427,-0.97927 0.17158,0.96669 c 0.66398,3.74088 -2.30171,6.84999 -5.42949,5.69204 z"
       style="fill:#f0d0cf;stroke-width:0.26458332" />
    <path
       inkscape:connector-curvature="0"
       id="path866"
       d="m -394.03682,348.06224 c -0.79182,-1.68517 -1.44018,-3.26275 -1.4408,-3.50573 -6.2e-4,-0.24297 -0.35796,-0.97755 -0.79408,-1.6324 -0.92244,-1.38507 -2.37979,-4.75652 -2.37979,-5.50546 0,-0.28334 -0.19964,-0.67857 -0.44365,-0.87829 -0.38411,-0.31438 -2.09107,-3.71021 -3.83995,-7.63916 -0.29149,-0.65485 -0.80516,-1.72641 -1.14148,-2.38125 -0.33633,-0.65485 -1.14459,-2.38125 -1.79614,-3.83646 -0.65154,-1.45521 -1.73409,-3.81385 -2.40566,-5.24143 -0.67157,-1.42757 -1.22103,-2.65113 -1.22103,-2.719 0,-0.19226 7.5683,-3.81936 17.4625,-8.36888 1.803,-0.82905 8.16371,-3.79269 11.77396,-5.48583 1.16416,-0.54597 4.37885,-2.03439 7.14375,-3.3076 2.76489,-1.27321 5.57897,-2.60059 6.25351,-2.94974 0.67454,-0.34915 1.47821,-0.63481 1.78594,-0.63481 0.30773,0 0.5595,-0.0999 0.5595,-0.22212 0,-0.29327 1.21063,-0.83622 1.86454,-0.83622 0.28419,0 0.51671,-0.12329 0.51671,-0.27398 0,-0.15069 0.548,-0.50889 1.21777,-0.79598 0.66977,-0.2871 2.05702,-0.93545 3.08279,-1.44079 1.24635,-0.61401 2.07114,-0.86706 2.4864,-0.76284 0.46112,0.11574 0.62138,0.0451 0.62138,-0.27388 0,-0.24047 0.4371,-0.62768 0.99218,-0.87893 2.24339,-1.01542 7.6724,-3.58892 8.56884,-4.06186 0.52914,-0.27917 1.19917,-0.50757 1.48896,-0.50757 0.28979,0 0.67511,-0.17859 0.85627,-0.39688 0.18115,-0.21828 0.52315,-0.39863 0.76,-0.40077 0.23684,-0.002 0.69228,-0.15097 1.01209,-0.33073 2.19744,-1.23511 4.12062,-2.16648 12.11853,-5.8688 4.94771,-2.29035 10.33294,-4.80492 11.96719,-5.58793 1.63424,-0.78301 3.59877,-1.62286 4.36562,-1.86634 0.76685,-0.24347 1.64007,-0.66338 1.94049,-0.93312 0.30043,-0.26974 0.62613,-0.49043 0.7238,-0.49043 0.0977,0 1.51874,-0.6403 3.15795,-1.42289 1.6392,-0.78258 4.82584,-2.28564 7.08141,-3.34013 2.25557,-1.05449 4.83244,-2.25966 5.72637,-2.67816 0.89393,-0.41849 1.86161,-0.7609 2.15041,-0.7609 0.2888,0 0.68681,-0.19486 0.88447,-0.43303 0.34288,-0.41315 2.3969,-1.41906 2.89764,-1.41906 0.23617,0 1.36575,2.27503 4.66359,9.39271 0.94394,2.03729 2.22926,4.77573 2.85628,6.08542 0.62701,1.30969 1.8811,3.98859 2.78686,5.95312 0.90576,1.96453 2.20995,4.7625 2.8982,6.21771 3.25587,6.88408 3.99886,8.61212 3.82431,8.89455 -0.10364,0.16769 -1.33235,0.83733 -2.73047,1.48809 -1.39812,0.65077 -3.53134,1.64675 -4.74049,2.21331 -1.20915,0.56655 -2.2523,1.03009 -2.3181,1.03009 -0.0658,0 -1.39822,0.60996 -2.96092,1.35546 -7.0981,3.3862 -12.31582,5.78829 -12.57313,5.78829 -0.15435,0 -0.46861,0.16075 -0.69835,0.35723 -0.35999,0.30786 -2.64537,1.39138 -11.6625,5.52932 -5.5419,2.54317 -8.45925,3.91332 -10.09019,4.73894 -0.52914,0.26786 -1.14893,0.48701 -1.37732,0.48701 -0.22838,0 -0.85386,0.29766 -1.38996,0.66146 -0.53609,0.3638 -1.24872,0.66146 -1.58363,0.66146 -0.33491,0 -0.6847,0.1226 -0.7773,0.27244 -0.27952,0.45227 -5.36389,2.90256 -6.02284,2.90256 -0.33734,0 -0.76617,-0.14883 -0.95296,-0.33073 -0.2726,-0.26547 -0.32906,-0.25241 -0.28615,0.0661 0.11387,0.84534 -0.0425,1.08191 -1.00142,1.51534 -0.54571,0.24664 -2.48047,1.14689 -4.29948,2.00055 -1.81901,0.85366 -3.78355,1.76933 -4.36563,2.03482 -0.58208,0.26549 -1.97768,0.91113 -3.10133,1.43475 -1.12364,0.52362 -2.18583,0.95204 -2.36041,0.95204 -0.17458,0 -0.50539,0.16458 -0.73513,0.36575 -0.22974,0.20116 -5.47787,2.70546 -11.6625,5.56512 -6.18464,2.85965 -11.55333,5.36954 -11.93042,5.57753 -0.37709,0.20799 -1.19097,0.45898 -1.80861,0.55774 -0.61764,0.0988 -1.18675,0.34575 -1.26469,0.54885 -0.0779,0.2031 -0.93094,0.73757 -1.89555,1.18772 -0.96462,0.45014 -3.00401,1.40956 -4.53198,2.13206 -1.52797,0.72249 -4.445,2.07564 -6.48229,3.007 -2.0373,0.93135 -4.04124,1.8725 -4.45322,2.09142 -0.41197,0.21893 -0.92498,0.39806 -1.14002,0.39806 -0.23952,0 -0.94866,-1.1869 -1.83064,-3.06396 z m 7.22752,-4.24056 c 1.70873,-0.81602 4.17833,-1.96324 5.48802,-2.54938 1.30969,-0.58614 3.63141,-1.65904 5.15938,-2.38423 5.13524,-2.43725 6.46533,-3.06074 10.539,-4.94022 2.23119,-1.02941 4.10096,-1.87165 4.15503,-1.87165 0.0541,0 2.31844,-1.07157 5.03194,-2.38125 2.71349,-1.30969 5.14369,-2.38125 5.40044,-2.38125 0.25674,0 0.75075,-0.21619 1.0978,-0.48043 0.67231,-0.51189 1.55043,-0.93964 10.7505,-5.23688 3.2374,-1.51215 6.01699,-2.74936 6.17687,-2.74936 0.15988,0 0.60672,-0.21491 0.99299,-0.47758 0.38626,-0.26267 2.25011,-1.17397 4.14189,-2.0251 1.89177,-0.85113 4.39208,-2.02716 5.55625,-2.61339 1.16416,-0.58624 2.85841,-1.32525 3.76498,-1.64226 0.90658,-0.317 1.82795,-0.72545 2.0475,-0.90766 0.64995,-0.53941 8.64548,-4.24026 9.1609,-4.24026 0.26043,0 0.5402,-0.10791 0.62171,-0.23979 0.18468,-0.29882 2.50196,-1.41418 16.32068,-7.85554 6.05754,-2.82361 11.14217,-5.13384 11.29919,-5.13384 0.49672,0 2.29655,-1.36097 2.22091,-1.67938 -0.10234,-0.43079 -3.13987,-7.1062 -4.17198,-9.16853 -0.47338,-0.94589 -1.48185,-3.08901 -2.24106,-4.7625 -0.75921,-1.67349 -2.08802,-4.52092 -2.95291,-6.32762 -1.78324,-3.72504 -2.10276,-4.78488 -1.44258,-4.78488 0.46314,0 0.5549,-0.45171 0.2041,-1.00471 -0.17373,-0.27388 -0.28696,-0.25985 -0.56022,0.0694 -0.43916,0.52916 -1.06602,0.0729 -1.06602,-0.77587 0,-0.32343 -0.22854,-0.79489 -0.50788,-1.04768 -0.48779,-0.44145 -0.82516,-0.3113 -8.53281,3.29188 -4.41371,2.06333 -8.30227,3.75487 -8.64124,3.75898 -0.33897,0.004 -0.67365,0.15691 -0.74373,0.33954 -0.0701,0.18264 -0.98337,0.72069 -2.02953,1.19568 -1.04615,0.47498 -3.36367,1.56082 -5.15004,2.41298 -1.78637,0.85216 -3.34895,1.54938 -3.47241,1.54938 -0.12345,0 -0.74547,0.28543 -1.38226,0.63428 -0.63679,0.34885 -7.11093,3.40257 -14.38697,6.78605 -7.27604,3.38347 -14.81456,6.90804 -16.75227,7.83238 -1.93771,0.92434 -3.56772,1.68062 -3.62226,1.68062 -0.0545,0 -1.35195,0.59532 -2.88314,1.32292 -1.53118,0.7276 -2.86712,1.32292 -2.96876,1.32292 -0.17571,0 -6.59294,3.06522 -8.07939,3.85917 -0.38705,0.20673 -0.89307,0.30322 -1.12447,0.21442 -0.23666,-0.0908 -0.42075,-0.0262 -0.42075,0.14768 0,0.17002 -1.27993,0.91157 -2.84427,1.64789 -1.56435,0.73631 -4.31317,2.03869 -6.10848,2.89417 -1.79531,0.85548 -3.40967,1.55542 -3.58745,1.55542 -0.17779,0 -0.55436,0.1748 -0.83684,0.38846 -0.28247,0.21365 -0.71666,0.39224 -0.96486,0.39687 -0.2482,0.005 -0.84632,0.2765 -1.32915,0.60416 -0.48284,0.32766 -4.71484,2.37805 -9.40446,4.55641 -6.09277,2.83014 -8.52658,4.08395 -8.52658,4.39258 0,0.23756 0.7563,2.02694 1.68067,3.97641 0.92436,1.94946 1.83238,4.02073 2.01782,4.60281 0.18544,0.58209 0.49543,1.24048 0.68887,1.4631 0.19344,0.22262 1.11773,2.06808 2.05399,4.10104 4.55479,9.89014 4.78449,10.38496 5.79973,12.49368 0.43788,0.9095 0.89981,1.65364 1.0265,1.65364 0.12669,0 1.62839,-0.66765 3.33711,-1.48368 z m -1.85654,-7.97517 c -0.52767,-1.12779 -1.27394,-2.7649 -1.65838,-3.63802 -0.38444,-0.87313 -1.21504,-2.65906 -1.84578,-3.96875 -2.86085,-5.94037 -3.83565,-8.11717 -3.83565,-8.56522 0,-0.6104 1.99638,-1.58278 2.40685,-1.1723 0.42504,0.42503 2.6177,5.18621 2.61904,5.68701 6.6e-4,0.24607 0.13505,0.53013 0.29866,0.63125 0.33072,0.20439 1.8192,3.35911 1.8192,3.85564 0,0.17363 0.16673,0.50367 0.37052,0.73341 0.2038,0.22974 0.68702,1.19161 1.07384,2.1375 0.38683,0.94589 1.05353,2.3913 1.48156,3.21204 0.97274,1.86517 0.97242,2.23021 -0.002,2.73429 -1.4184,0.73348 -1.69073,0.56905 -2.7275,-1.64685 z m 4.76348,-2.11667 c -0.51961,-1.12778 -1.02872,-2.34817 -1.13135,-2.71198 -0.10264,-0.3638 -0.3402,-0.84005 -0.52791,-1.05833 -0.28725,-0.33402 -2.23274,-4.4286 -4.39997,-9.26042 -0.29372,-0.65484 -0.7691,-1.63661 -1.0564,-2.1817 -0.58234,-1.10489 -0.51115,-1.36373 0.51922,-1.8877 1.78031,-0.90534 1.73589,-0.92344 4.62653,1.88583 5.39189,5.24009 7.32917,7.03511 7.33306,6.79457 0.004,-0.25298 -1.99277,-4.96268 -2.40374,-5.66933 -0.55809,-0.95962 -2.39436,-4.92869 -2.5297,-5.4679 -0.11759,-0.46855 0.038,-0.70883 0.73655,-1.13771 0.48709,-0.29903 1.06013,-0.51184 1.27341,-0.4729 0.42505,0.0776 0.48973,0.19113 2.29909,4.0358 0.68484,1.45521 1.69991,3.55698 2.25571,4.67061 0.5558,1.11363 1.01054,2.32128 1.01054,2.68367 0,0.3624 0.15615,0.71882 0.347,0.79206 0.34934,0.13405 2.37086,4.47152 2.69975,5.79269 0.15785,0.63411 0.0596,0.76963 -0.9209,1.26983 -0.60369,0.30798 -1.2992,0.49195 -1.54558,0.40882 -0.24639,-0.0831 -2.6804,-2.32355 -5.40892,-4.97872 -2.72851,-2.65517 -4.96093,-4.64359 -4.96093,-4.4187 0,0.22488 0.16117,0.64373 0.35815,0.93077 0.19698,0.28704 0.80942,1.53392 1.36096,2.77085 0.55155,1.23692 1.58811,3.48403 2.30347,4.99357 0.71536,1.50954 1.2392,2.90477 1.16409,3.1005 -0.12139,0.31633 -1.77343,1.16634 -2.26685,1.16634 -0.1048,0 -0.61568,-0.92273 -1.13528,-2.05052 z m 17.25731,-7.9375 c -0.47781,-0.98226 -1.12929,-2.38125 -1.44773,-3.10885 -0.31844,-0.72761 -1.0268,-2.27542 -1.57413,-3.43958 -3.6984,-7.86651 -4.37833,-9.3815 -4.37833,-9.7557 0,-0.46317 1.97269,-1.58734 2.46716,-1.40594 0.17104,0.0627 0.57497,-0.126 0.89765,-0.41943 1.40975,-1.28196 4.43098,-0.71956 5.97185,1.11167 1.68344,2.00065 2.70884,5.51708 2.2,7.54448 -0.23736,0.94569 -1.66658,2.48731 -2.71026,2.92338 -0.8223,0.34359 -0.86661,0.42257 -0.61229,1.09148 0.15079,0.39661 0.21177,0.88367 0.13553,1.08236 -0.0762,0.1987 0.0486,0.43313 0.27751,0.52096 0.41509,0.15928 2.22077,3.79925 2.22077,4.47672 0,0.41616 -1.33023,1.16439 -2.07011,1.16439 -0.36606,0 -0.7527,-0.50124 -1.37762,-1.78594 z m 0.29308,-10.62912 c 0.89171,-0.89171 0.93172,-1.20147 0.34471,-2.66856 -0.46447,-1.16081 -1.01457,-1.58513 -2.05501,-1.58513 -0.73115,0 -2.07109,0.52996 -1.95492,0.77319 1.14709,2.40185 2.24876,4.25389 2.5304,4.25389 0.19878,0 0.70945,-0.34802 1.13482,-0.77339 z m 10.2984,7.68385 c 0,-0.25352 -0.33354,-0.70754 -0.74119,-1.00893 -0.42624,-0.31513 -0.89781,-1.03895 -1.10977,-1.7034 -0.20271,-0.63548 -0.58355,-1.43937 -0.84631,-1.78641 -0.26275,-0.34705 -0.47773,-0.7373 -0.47773,-0.86724 0,-0.12993 -0.39715,-1.03984 -0.88256,-2.02203 -0.48541,-0.98218 -0.97094,-2.13974 -1.07895,-2.57235 -0.10801,-0.4326 -0.35605,-0.96515 -0.5512,-1.18343 -0.66463,-0.7434 -3.11078,-6.32232 -2.95271,-6.73423 0.0866,-0.22567 0.6076,-0.60326 1.15779,-0.83909 0.55018,-0.23583 1.20719,-0.53338 1.46,-0.66121 0.94784,-0.47927 2.73836,-1.01812 3.3768,-1.01622 3.76078,0.0111 7.36712,6.70061 5.59068,10.37025 -0.30998,0.64033 -0.5636,1.29479 -0.5636,1.45435 0,0.15957 0.74888,0.82451 1.66417,1.47765 1.69353,1.20847 4.15666,3.40608 4.15666,3.70858 0,0.26142 -2.04025,1.23575 -2.58766,1.23575 -0.27065,0 -0.96,-0.39129 -1.5319,-0.86954 -0.5719,-0.47824 -1.74403,-1.46051 -2.60475,-2.18281 -1.52431,-1.27917 -1.56002,-1.29345 -1.37508,-0.55003 0.10442,0.41978 0.60029,1.5937 1.10192,2.60871 1.27673,2.58335 1.23711,2.90229 -0.41948,3.37739 -0.65617,0.18819 -0.78513,0.14947 -0.78513,-0.23576 z m -0.55715,-11.38224 c 0.92924,-0.86803 1.06147,-1.85062 0.44696,-3.32134 -0.52048,-1.24567 -1.50455,-1.83963 -2.72088,-1.64225 -1.70174,0.27616 -1.79081,0.59531 -0.80129,2.87092 1.37076,3.15235 1.70057,3.37678 3.07521,2.09267 z m 10.93885,4.72606 c -4.14928,-2.07343 -7.26952,-7.59665 -7.07048,-12.51565 0.11591,-2.86459 0.56816,-4.06944 2.06248,-5.49472 1.53382,-1.46296 2.66577,-1.82838 4.77644,-1.54195 1.87068,0.25385 3.59725,1.24343 5.3555,3.0695 2.11032,2.1917 4.07353,6.645 4.07353,9.24028 0,0.81509 -0.54202,1.59555 -0.87608,1.26149 -0.0913,-0.0913 -0.0383,0.2372 0.11779,0.7299 0.53882,1.70128 0.097,3.08135 -1.45202,4.53537 -1.89011,1.77422 -4.36224,2.02747 -6.98716,0.71578 z m 4.09139,-3.41857 c 1.06012,-0.64639 1.51899,-1.53856 1.88713,-3.66909 l 0.28926,-1.67401 -1.32636,-2.55933 c -1.09661,-2.11599 -1.56253,-2.73119 -2.68973,-3.55151 -1.48799,-1.08288 -2.69722,-1.27079 -4.34454,-0.67511 -1.17361,0.42438 -1.82015,2.05853 -1.7709,4.476 0.0624,3.06219 2.19166,6.52044 4.72684,7.67705 1.36336,0.622 2.17878,0.61594 3.2283,-0.024 z m 10.42455,-2.98866 c -4.50556,-1.77393 -8.26846,-8.71605 -7.47766,-13.79547 0.42214,-2.71152 1.37264,-4.269 3.34981,-5.48899 1.23468,-0.76184 4.15354,-0.679 5.83503,0.16562 1.55165,0.77939 3.37755,2.39367 3.22757,2.8535 -0.0584,0.17907 -0.6669,0.59423 -1.35221,0.92258 l -1.24601,0.597 -1.24571,-0.66315 c -1.5235,-0.81101 -2.45852,-0.8356 -3.76896,-0.0991 -0.99094,0.55693 -1.17804,0.92835 -1.66404,3.30341 -0.3534,1.72707 0.88485,5.07721 2.62282,7.09612 0.50895,0.59123 1.03147,1.21128 1.16115,1.37791 0.42594,0.54726 3.28131,0.71968 4.18441,0.25267 0.85515,-0.44222 1.71506,-1.49603 2.01865,-2.47385 0.10166,-0.32743 0.28459,-0.59532 0.4065,-0.59532 0.30569,0 0.16831,-2.19527 -0.14389,-2.29934 -0.13842,-0.0461 -0.3694,0.18444 -0.51329,0.51241 -0.24259,0.55297 -3.73941,2.51595 -4.56396,2.56204 -0.45527,0.0254 -1.77208,-2.72319 -1.56417,-3.26497 0.0917,-0.239 0.69363,-0.66039 1.3376,-0.93642 1.64179,-0.70376 4.65949,-2.1036 5.49579,-2.54938 0.38626,-0.20588 0.88372,-0.37434 1.10547,-0.37434 0.62043,0 1.51279,2.73308 1.68386,5.15722 0.43534,6.16883 -3.71035,9.77866 -8.88876,7.73983 z m 12.43588,-5.17068 c -1.4033,-2.75069 -7.96477,-17.04584 -7.96477,-17.35244 0,-0.59474 4.60335,-2.54476 6.00733,-2.54476 2.98081,0 5.68413,3.28491 6.06362,7.36816 0.14587,1.56948 0.0867,2.01698 -0.39941,3.02118 -0.5271,1.08885 -0.53763,2.04608 -0.0225,2.04608 0.43644,0 5.28428,4.01599 5.28428,4.37754 0,0.40184 -1.81883,1.44329 -2.52062,1.44329 -0.23377,0 -1.5653,-0.95524 -2.95897,-2.12275 -1.39366,-1.16752 -2.59444,-2.06224 -2.6684,-1.98828 -0.074,0.074 0.35987,1.19842 0.96405,2.49881 0.60419,1.30039 1.09853,2.55406 1.09853,2.78592 0,0.42739 -1.44849,1.46933 -2.04515,1.47114 -0.17894,5.3e-4 -0.55604,-0.4512 -0.838,-1.00389 z m 0.36217,-11.04994 c 0.92716,-0.85926 0.92569,-2.50751 -0.003,-3.7255 -0.95739,-1.2552 -1.54375,-1.51318 -2.62687,-1.15572 -1.55365,0.51275 -1.57321,0.74158 -0.28886,3.3804 1.28457,2.6393 1.54573,2.77357 2.91905,1.50082 z m 9.49605,6.56472 c -0.23358,-0.5457 -0.53082,-1.17078 -0.66051,-1.38906 -0.1297,-0.21828 -0.4702,-0.90754 -0.75667,-1.53168 -0.58898,-1.28324 -1.90757,-4.08672 -3.57292,-7.59645 -0.62143,-1.30969 -1.45238,-3.15515 -1.84655,-4.10104 -0.39417,-0.94589 -0.82469,-1.8329 -0.95671,-1.97115 -0.71315,-0.74675 -0.20256,-1.22485 2.84156,-2.66072 1.69488,-0.79945 3.24068,-1.45355 3.43512,-1.45355 0.37918,0 1.68536,2.3565 1.68536,3.0406 0,0.25637 -0.75061,0.75441 -1.98438,1.31665 -1.0914,0.49738 -1.98437,1.0279 -1.98437,1.17894 0,0.45031 1.68317,3.72423 1.91468,3.72423 0.11748,0 0.99842,-0.35585 1.95764,-0.79079 0.95923,-0.43493 1.85185,-0.72416 1.9836,-0.64273 0.28837,0.17822 1.55241,2.62728 1.55241,3.00777 0,0.31655 -2.44061,1.60075 -3.04222,1.60075 -0.74194,0 -0.74282,0.79024 -0.003,2.5314 0.3996,0.94021 0.81926,1.76679 0.93257,1.83682 0.11332,0.07 1.00849,-0.24818 1.98928,-0.70715 1.30264,-0.60958 1.89825,-0.76506 2.20999,-0.5769 0.38013,0.22944 1.57853,2.31197 1.60647,2.79166 0.0166,0.28423 -2.16086,1.49786 -3.60393,2.00873 -0.70398,0.24923 -1.57434,0.66075 -1.93415,0.9145 -0.95786,0.67553 -1.28985,0.5756 -1.76344,-0.53083 z m 9.16855,-4.50846 c -1.52247,-0.81946 -3.27953,-2.92545 -3.01528,-3.61407 0.39115,-1.01933 2.41978,-1.04488 3.25295,-0.041 0.36536,0.44024 1.51241,0.5628 2.05242,0.2193 0.94656,-0.60212 0.46376,-3.07842 -0.75068,-3.85028 -0.33957,-0.21582 -1.39131,-0.47636 -2.3372,-0.57897 -2.25084,-0.24417 -3.37444,-0.72886 -4.46468,-1.92594 -1.74481,-1.91579 -2.59599,-5.17696 -1.90091,-7.28306 0.77839,-2.35855 3.60734,-3.08677 5.80548,-1.49444 1.17001,0.84755 2.14497,2.19582 2.14662,2.96856 5.3e-4,0.25466 -0.044,0.46302 -0.099,0.46302 -0.055,0 -0.52387,0.17711 -1.04195,0.39358 -0.89982,0.37596 -0.97697,0.36413 -1.72415,-0.26459 -1.00254,-0.84357 -1.82102,-0.84853 -2.20157,-0.0133 -0.24619,0.54034 -0.18282,0.8342 0.39109,1.81349 l 0.68488,1.16867 2.08751,0.14308 c 2.4035,0.16474 3.29576,0.55089 4.5944,1.98832 2.98963,3.30916 3.33119,7.9686 0.72645,9.9099 -1.18902,0.88618 -2.55713,0.88544 -4.20639,-0.002 z m 8.8595,-3.93409 c -1.04764,-0.55133 -2.15992,-1.6063 -2.82285,-2.67742 -0.63607,-1.02771 -0.41479,-1.45349 0.99764,-1.91963 0.84406,-0.27857 0.97848,-0.2409 1.84012,0.51563 1.08708,0.95448 1.51198,1.00906 2.23405,0.28699 0.60343,-0.60343 0.66433,-1.30843 0.21933,-2.53905 -0.37086,-1.02562 -0.97144,-1.33142 -3.3302,-1.69568 -2.32637,-0.35925 -3.1812,-0.69957 -4.25494,-1.69394 -2.09105,-1.93646 -3.08004,-6.02812 -1.95645,-8.09425 0.56863,-1.04563 1.92238,-1.85211 3.10455,-1.84951 1.64685,0.004 4.63021,2.41741 4.63021,3.74621 0,0.94389 -2.49827,1.70613 -2.82251,0.86116 -0.23188,-0.60426 -1.38725,-0.99013 -1.83988,-0.61448 -0.5147,0.42716 -0.45299,1.92229 0.10793,2.615 0.45906,0.56691 1.30387,0.8274 4.15759,1.28194 0.7276,0.1159 1.5803,0.35062 1.89488,0.5216 0.82663,0.4493 2.46344,2.43905 2.64929,3.22057 0.0874,0.36771 0.24753,0.78762 0.35574,0.93314 0.10822,0.14552 0.27387,0.74083 0.36812,1.32292 0.0942,0.58208 0.23889,1.43195 0.32143,1.88859 0.21474,1.1882 -0.70439,3.12323 -1.80115,3.7919 -1.06161,0.64724 -2.92398,0.69241 -4.0529,0.0983 z m 4.23333,-6.96943 c 0.0899,-0.14552 -0.0291,-0.26458 -0.26458,-0.26458 -0.23546,0 -0.35452,0.11906 -0.26458,0.26458 0.0899,0.14552 0.209,0.26458 0.26458,0.26458 0.0556,0 0.17465,-0.11906 0.26458,-0.26458 z m -91.81041,56.62083 c 0.0899,-0.14552 0.0445,-0.26458 -0.10106,-0.26458 -0.14553,0 -0.33817,0.11906 -0.42811,0.26458 -0.0899,0.14552 -0.0445,0.26459 0.10106,0.26459 0.14553,0 0.33817,-0.11907 0.42811,-0.26459 z m 6.08542,-2.64583 c 0.0899,-0.14552 0.0445,-0.26458 -0.10107,-0.26458 -0.14552,0 -0.33816,0.11906 -0.4281,0.26458 -0.0899,0.14552 -0.0445,0.26458 0.10106,0.26458 0.14552,0 0.33817,-0.11906 0.42811,-0.26458 z m 16.99396,-8.09735 c -0.0879,-0.0879 -0.31612,-0.0973 -0.50712,-0.0209 -0.21106,0.0845 -0.14837,0.14716 0.15986,0.15985 0.27891,0.0115 0.43518,-0.051 0.34726,-0.13896 z m 8.29907,-3.70713 c 0.30688,-0.36976 0.28745,-0.41435 -0.14412,-0.33072 -0.27435,0.0532 -0.54837,0.24549 -0.60894,0.42739 -0.15715,0.47199 0.33338,0.40902 0.75306,-0.0967 z m -55.05866,-4.01995 c 0,-0.11771 -0.18742,-0.44513 -0.4165,-0.7276 -0.22907,-0.28248 -0.36649,-0.39453 -0.30538,-0.24901 0.0611,0.14552 0.18527,0.47294 0.2759,0.7276 0.16931,0.47572 0.44598,0.6302 0.44598,0.24901 z m -1.05017,-2.15199 c -0.16461,-0.30758 -0.42014,-0.48455 -0.56784,-0.39326 -0.16557,0.10232 -0.0935,0.35943 0.18804,0.67049 0.56678,0.62628 0.78003,0.47062 0.3798,-0.27723 z m 80.16059,-5.05164 c 0,-0.33728 -0.98117,-0.32961 -1.19063,0.009 -0.0899,0.14552 -0.0897,0.38396 5.3e-4,0.52988 0.19341,0.31307 1.1901,-0.13846 1.1901,-0.5392 z m -79.63959,-0.78444 c 0,-0.14552 -0.0525,-0.26458 -0.11667,-0.26458 -0.0642,0 -0.19026,0.11906 -0.2802,0.26458 -0.0899,0.14552 -0.0374,0.26458 0.11668,0.26458 0.1541,0 0.28019,-0.11906 0.28019,-0.26458 z m 86.10024,-2.27727 c 0.57895,-0.22216 0.5255,-0.63315 -0.0824,-0.63315 -0.27547,0 -0.56939,0.1786 -0.65315,0.39688 -0.1626,0.42374 0.0603,0.49536 0.7355,0.23627 z m 9.66889,-4.67342 c 0.006,-0.1121 -0.49598,0.0514 -1.11444,0.36325 -1.37483,0.69332 -1.34792,0.66964 -1.14121,1.00412 0.17204,0.27837 2.23622,-0.97293 2.25565,-1.36737 z m -78.04204,-0.98681 c 0,-0.14552 -0.29766,-0.26458 -0.66146,-0.26458 -0.3638,0 -0.66146,0.11906 -0.66146,0.26458 0,0.14552 0.29766,0.26458 0.66146,0.26458 0.3638,0 0.66146,-0.11906 0.66146,-0.26458 z m 15.34583,-7.11787 c 0,-0.13128 0.38695,-0.38146 0.8599,-0.55594 0.47294,-0.17449 0.71914,-0.37196 0.5471,-0.43883 -0.34682,-0.13481 -1.80906,0.54917 -2.06729,0.96701 -0.0906,0.14655 0.0209,0.26646 0.2478,0.26646 0.22687,0 0.41249,-0.10741 0.41249,-0.2387 z m 7.8041,-3.82881 c 0.47767,-0.34928 0.47323,-0.37086 -0.11475,-0.55748 -0.57159,-0.18141 -1.05898,0.14742 -1.07072,0.72239 -0.007,0.31951 0.64738,0.22855 1.18547,-0.16491 z m 83.89452,-1.71056 c -0.56497,-0.11026 -0.79468,0.09 -0.5526,0.48165 0.13088,0.21177 0.29932,0.19807 0.59686,-0.0485 0.37347,-0.30955 0.36908,-0.35245 -0.0443,-0.43311 z m -60.1781,-9.45326 c 0.73724,-0.37358 1.26888,-0.75079 1.18143,-0.83824 -0.17948,-0.17949 -1.2979,0.3425 -2.2444,1.04749 -0.88607,0.65999 -0.50394,0.58477 1.06297,-0.20925 z m 59.20671,-0.80591 c -0.38445,-0.46323 -0.62993,-0.28216 -0.40658,0.29989 0.0897,0.23378 0.2888,0.34738 0.44241,0.25244 0.19181,-0.11854 0.18058,-0.29156 -0.0358,-0.55233 z m -49.85098,-3.53889 c 0.0927,-0.14998 -0.0135,-0.19434 -0.24897,-0.10399 -0.45837,0.1759 -0.54223,0.36554 -0.16165,0.36554 0.13694,0 0.32172,-0.1177 0.41062,-0.26155 z m 1.32479,-0.5322 c 0.0899,-0.14552 -0.0151,-0.26458 -0.23335,-0.26458 -0.21828,0 -0.47046,0.11906 -0.5604,0.26458 -0.0899,0.14552 0.0151,0.26458 0.23336,0.26458 0.21828,0 0.47045,-0.11906 0.56039,-0.26458 z m 44.65788,-3.97287 c -0.13114,-0.50149 -0.60475,-1.01489 -0.60475,-0.65556 0,0.22499 0.52374,1.18885 0.64599,1.18885 0.054,0 0.0355,-0.23998 -0.0412,-0.53329 z m -24.41725,-5.44476 c 0,-0.31682 -0.10668,-0.33348 -0.56492,-0.0882 -0.43675,0.23375 -0.48464,0.35194 -0.21107,0.52102 0.43872,0.27114 0.77599,0.083 0.77599,-0.43278 z m 18.78541,-6.85425 c 0,-0.3638 -0.11906,-0.66145 -0.26458,-0.66145 -0.29559,0 -0.36266,0.87205 -0.0882,1.14652 0.29166,0.29167 0.35278,0.20763 0.35278,-0.48507 z"
       style="fill:#eaaead;stroke-width:0.26458332" />
    <path
       inkscape:connector-curvature="0"
       id="path903"
       d="m 61.384654,291.94326 c -1.93892,-0.4611 -3.42204,-1.37789 -5.32397,-3.291 -2.84763,-2.86437 -5.69233,-7.39961 -6.84159,-10.90737 -0.62614,-1.91108 -0.46314,-5.27001 0.33033,-6.80709 0.59911,-1.16058 2.07017,-2.59923 2.94009,-2.87534 0.38871,-0.12337 0.56827,-0.46874 0.66551,-1.28012 0.0732,-0.61113 0.37822,-3.01616 0.67773,-5.34449 0.2995,-2.32833 0.54363,-4.66273 0.5425,-5.18755 -10e-4,-0.6147 -0.5579,-2.12097 -1.56422,-4.23334 -3.24411,-6.80967 -3.68082,-10.5862 -1.47881,-12.78821 1.33158,-1.33158 5.23261,-2.04134 8.20685,-1.49318 5.38327,0.99216 8.46975,5.16686 9.2564,12.51998 l 0.19067,1.78229 0.73791,-0.52544 c 1.34075,-0.9547 6.83356,-6.61269 9.3329,-9.61355 1.3516,-1.62282 3.96069,-4.86247 5.79799,-7.19923 3.53702,-4.49853 4.72087,-5.72256 6.59962,-6.82358 5.62638,-3.29728 13.227256,-0.43755 13.227256,4.97658 0,1.84479 -0.49982,2.952 -2.36747,5.2445 -2.12069,2.60311 -6.294266,8.67326 -5.740116,8.34857 4.217866,-2.47131 10.415276,-5.88183 11.175546,-6.15007 3.61777,-1.27643 7.92112,-0.38694 10.7519,2.22238 2.98765,2.75392 3.14876,6.57099 0.38689,9.16636 -0.4857,0.45641 -2.59556,1.91709 -4.68859,3.24594 -4.27961,2.71712 -8.6548,5.72284 -8.89425,6.11028 -0.19237,0.31126 0.31161,0.2273 5.71106,-0.95144 2.26809,-0.49513 4.53844,-0.90025 5.04521,-0.90025 2.37488,0 5.4038,1.56331 6.48294,3.34603 1.30729,2.15958 0.44471,5.3307 -1.83558,6.74823 -0.61401,0.38169 -4.27153,2.08879 -8.12783,3.79355 -10.93937,4.83599 -14.071626,6.5537 -18.178256,9.96885 -6.71887,5.58755 -15.03879,8.38868 -22.60878,7.61185 -1.49862,-0.15379 -2.77878,-0.33363 -2.84479,-0.39964 -0.066,-0.066 -0.45412,0.20005 -0.86246,0.59126 -1.37092,1.31343 -3.98579,1.74032 -6.70259,1.09424 z m 3.89865,-2.55372 c 0.10697,-0.10395 -0.53558,-0.7206 -1.4279,-1.37034 -4.45768,-3.24587 -9.48047,-10.59774 -10.32229,-15.1088 -0.3787,-2.02935 -0.751,-2.11949 -1.42836,-0.34585 -0.67302,1.76227 -0.42396,3.81995 0.76555,6.32472 1.9396,4.08423 5.17463,8.21309 7.50528,9.57894 2.10114,1.23135 4.18593,1.62273 4.90772,0.92133 z m 13.95284,-2.02086 c 4.489,-0.94429 8.98595,-3.16012 13.06347,-6.4369 4.94783,-3.97618 7.796876,-5.55691 18.694416,-10.37216 8.67323,-3.83242 8.92432,-3.9736 9.14336,-5.14119 0.2171,-1.15728 -0.19858,-1.87651 -1.45501,-2.5175 -1.74438,-0.88991 -2.82698,-0.91792 -5.93853,-0.15364 -2.38337,0.58541 -5.15139,1.09184 -11.70037,2.14064 -0.56457,0.0904 -1.915396,1.08412 -4.308546,3.16946 -3.44875,3.00517 -4.26174,3.49271 -4.26174,2.5557 0,-0.59204 2.1579,-3.75991 4.03398,-5.92201 2.50605,-2.88812 9.847686,-8.40545 17.301926,-13.0026 3.04494,-1.87787 4.06409,-2.98484 4.06409,-4.41428 0,-1.90392 -2.40358,-3.94176 -5.29625,-4.49034 -2.1483,-0.40742 -3.66702,0.0474 -7.65166,2.29164 -6.951966,3.91545 -11.743396,6.84908 -12.960276,7.93516 -0.67651,0.6038 -2.35027,2.60033 -3.71946,4.43674 -1.36919,1.83641 -2.61519,3.29392 -2.76891,3.23892 -0.55908,-0.20006 -0.13932,-1.69107 1.27817,-4.54014 0.79641,-1.60073 2.11743,-3.86291 2.93561,-5.02708 0.81818,-1.16417 2.86637,-4.20026 4.55154,-6.74687 1.68517,-2.54662 3.6218,-5.34459 4.30362,-6.21771 3.137076,-4.01727 3.188036,-4.10056 3.188036,-5.21077 0,-1.56498 -1.43409,-2.94439 -3.508916,-3.37512 -3.2456,-0.67379 -6.07062,0.69266 -8.99854,4.35255 -0.93134,1.16417 -3.34468,4.20026 -5.36297,6.74688 -2.2674,2.86092 -5.3423,6.3029 -8.047,9.00761 -7.96195,7.96203 -9.7949,8.68574 -9.80656,3.87193 -0.0102,-4.22173 -0.88227,-8.00383 -2.32774,-10.09552 -1.56959,-2.27133 -4.6157,-3.32399 -8.07241,-2.78965 -1.04376,0.16135 -2.06935,0.46401 -2.27909,0.67259 -0.51065,0.5078 -0.46034,2.54576 0.11147,4.51575 0.24971,0.86029 1.21625,3.17777 2.14788,5.14995 1.98775,4.2079 2.02033,4.51151 1.1348,10.57665 -0.78211,5.3569 -0.77912,9.88958 0.008,12.15351 1.07304,3.08621 3.29839,6.4582 6.33962,9.6062 2.50341,2.59129 3.91649,3.49334 6.24998,3.98971 2.45254,0.52169 7.53108,0.54315 9.91399,0.0419 z m -12.7834,-4.05739 c -0.61824,-0.68314 -0.54334,-1.55152 0.17438,-2.02178 0.33674,-0.22065 1.37854,-0.64984 2.3151,-0.95375 0.93657,-0.30393 2.83241,-1.08447 4.21298,-1.73454 2.61703,-1.23229 3.46063,-1.31812 3.95094,-0.40198 0.53904,1.00722 0.0333,1.6158 -2.32861,2.80186 -2.39131,1.20085 -6.62219,2.79404 -7.41983,2.79404 -0.25689,0 -0.66413,-0.21773 -0.90496,-0.48385 z m -3.19711,-3.3715 c -1.00162,-1.00163 -0.42044,-1.92972 2.23006,-3.5612 0.80037,-0.49265 3.00302,-2.02018 4.89479,-3.3945 1.89177,-1.37433 3.63578,-2.55086 3.87556,-2.61452 0.23978,-0.0637 0.68627,0.0182 0.99219,0.18193 0.63228,0.33839 0.75541,1.52259 0.22548,2.16859 -0.48714,0.59384 -6.0725,4.62768 -8.63933,6.23946 -2.36979,1.48807 -2.92017,1.63882 -3.57875,0.98024 z m -3.65692,-4.10334 c -0.87315,-0.50856 -0.58404,-1.76425 0.65444,-2.84244 0.6146,-0.53505 2.15263,-1.95509 3.41784,-3.15564 1.84755,-1.75312 2.45908,-2.18281 3.10657,-2.18281 0.82847,0 1.35397,0.57351 1.35397,1.4777 0,0.80674 -6.75674,6.99639 -7.62051,6.98092 -0.24711,-0.004 -0.65765,-0.1294 -0.91231,-0.27773 z m 93.871236,-53.96421 c -2.04423,-0.32287 -4.23276,-0.96414 -5.50436,-1.61286 -2.15969,-1.1018 -3.98333,-3.31912 -4.41076,-5.36295 -0.16802,-0.80348 -0.27951,-0.89599 -2.00143,-1.66082 -4.82587,-2.14353 -6.45771,-10.15579 -2.91206,-14.29809 l 0.89567,-1.04639 -0.92043,-1.29461 c -2.99904,-4.21821 -1.72794,-9.57988 2.85084,-12.02526 1.44777,-0.77321 1.98573,-0.90887 3.98859,-1.00584 1.2733,-0.0617 2.3151,-0.22439 2.3151,-0.36165 0,-0.13726 0.40961,-1.13612 0.91025,-2.21969 3.23959,-7.01165 10.86969,-9.33433 20.6416,-6.28351 2.88326,0.90017 6.64079,2.76222 9.02299,4.47137 l 1.96853,1.41236 1.12467,-0.40483 c 2.18823,-0.78767 4.9038,0.15063 7.11063,2.45688 2.11685,2.21222 3.79406,5.97022 4.23125,9.48067 0.96307,7.7331 0.38384,11.7488 -1.99607,13.83839 -1.02416,0.89923 -2.79152,1.50034 -3.7235,1.26643 -0.49978,-0.12544 -0.74687,0.10562 -1.60581,1.50159 -1.34107,2.17955 -5.33791,6.18481 -7.65433,7.67044 -3.81109,2.44423 -7.74717,4.03116 -12.29955,4.95888 -3.01854,0.61514 -9.62125,0.90022 -12.03182,0.51949 z m 11.48897,-3.41895 c 8.50445,-1.66327 15.25281,-6.25952 18.98995,-12.93389 0.92561,-1.65309 0.99202,-1.92528 1.08645,-4.45282 0.15571,-4.16733 -1.03402,-9.94292 -2.7462,-13.33164 -1.94579,-3.85105 -6.8255,-7.67072 -12.4253,-9.7261 -3.5134,-1.28957 -5.8817,-1.70504 -9.07254,-1.59161 -2.50583,0.0891 -3.03733,0.19656 -4.59352,0.92883 -2.57684,1.21253 -4.19805,3.00395 -5.26993,5.82321 l -0.26292,0.69151 1.81067,-0.1518 c 2.50521,-0.21003 4.79886,-1.02916 7.6163,-2.72001 1.31939,-0.79181 2.53978,-1.43966 2.71198,-1.43966 0.70929,0 0.20132,0.76764 -1.77297,2.67931 -3.69548,3.57828 -6.86486,4.63804 -12.9952,4.34529 -3.54347,-0.16921 -3.58343,-0.16468 -5.02544,0.5696 -2.97655,1.51569 -3.92457,4.52221 -2.30003,7.29427 1.21192,2.06799 2.30023,2.52283 7.75217,3.23991 4.02447,0.52933 4.73268,0.70921 4.73268,1.20206 0,0.68503 -2.64978,1.0538 -7.06349,0.98303 l -4.15308,-0.0666 -0.81756,0.78327 c -2.27453,2.17914 -1.88151,7.2355 0.7297,9.38788 1.20031,0.9894 2.52436,1.2627 7.07109,1.4596 5.44477,0.23579 6.4823,0.38388 6.4823,0.92526 0,0.75185 -3.7853,1.58712 -7.2099,1.59095 -1.9058,0.002 -2.02159,0.10638 -1.41268,1.27191 1.04215,1.99484 3.37582,3.20192 7.29966,3.77571 2.15094,0.31453 7.95258,0.0268 10.83781,-0.53747 z m 7.30505,-12.33226 c -0.22868,-0.22867 -0.41578,-0.766 -0.41578,-1.19406 0,-0.67421 0.16808,-0.85251 1.25677,-1.33327 0.69123,-0.30523 2.82407,-1.327 4.73966,-2.2706 3.73014,-1.83742 4.4417,-1.93925 4.75754,-0.68083 0.24036,0.95766 -0.0945,1.37021 -2.13876,2.63466 -1.6732,1.03495 -6.77963,3.26363 -7.47183,3.26104 -0.17151,-5.2e-4 -0.49893,-0.18826 -0.7276,-0.41694 z m -4.47581,-5.88891 c -0.56815,-0.62779 -0.55758,-1.44748 0.0251,-1.95046 0.25466,-0.21981 1.7727,-0.66178 3.37343,-0.98215 1.60073,-0.32037 4.27964,-0.94573 5.95313,-1.38969 1.67349,-0.44396 3.29894,-0.86554 3.61212,-0.93684 0.35803,-0.0815 0.77548,0.0764 1.12448,0.42543 1.71771,1.71771 -0.38897,2.75905 -9.18642,4.54087 -4.52928,0.91735 -4.34659,0.90643 -4.90188,0.29284 z m 3.19906,-7.64633 c -0.25407,-0.28074 -0.46194,-0.7505 -0.46194,-1.04391 0,-0.98583 0.78483,-1.33085 3.43958,-1.51208 1.38245,-0.0944 3.42232,-0.30009 4.53305,-0.45715 2.40919,-0.34067 3.13987,-0.0946 3.13987,1.05746 0,0.40889 -0.20836,0.92587 -0.46302,1.14885 -0.50251,0.43999 -3.24145,0.87521 -7.21098,1.14583 -2.27367,0.15501 -2.55888,0.12253 -2.97656,-0.339 z m 17.99985,10.97116 c 1.2047,-1.28235 1.75232,-3.06642 1.72476,-5.6191 -0.0456,-4.22406 -1.7655,-10.1779 -3.65493,-12.65242 -0.93081,-1.21904 -3.53267,-2.77711 -4.0764,-2.44107 -0.16275,0.10058 0.20273,0.8836 0.90666,1.94246 1.40048,2.10662 2.49755,4.98867 3.34553,8.78887 0.49497,2.21815 0.61951,3.55737 0.62097,6.67711 0.002,4.11739 0.10022,4.40393 1.13341,3.30415 z m -104.501646,1.56529 c -0.6825,-0.19121 -2.23031,-0.92348 -3.43959,-1.62727 -3.16309,-1.84089 -9.71725,-5.18946 -12.68458,-6.48063 l -2.5484,-1.10889 -1.94951,1.06741 c -2.52944,1.38492 -6.12587,2.571 -9.00669,2.97034 -5.5846,0.77413 -12.02689,-1.34179 -18.16639,-5.96661 -4.96915,-3.74321 -7.47069,-7.13025 -10.31348,-13.96426 -0.19157,-0.46054 -0.50284,-0.72761 -0.84804,-0.72761 -0.82899,0 -2.57991,-0.98376 -3.06291,-1.72092 -0.23633,-0.36068 -0.50596,-0.60962 -0.59918,-0.5532 -0.44756,0.27086 -0.53941,-7.06381 -0.1164,-9.29498 0.59644,-3.14589 3.63304,-8.67869 6.138,-11.18365 3.00487,-3.00487 7.32293,-3.92795 9.68456,-2.07029 l 0.66825,0.52565 2.1873,-0.93947 c 1.20301,-0.5167 2.77891,-1.05784 3.502,-1.20252 6.62565,-1.32575 14.882,-0.99115 18.31586,0.74225 3.97196,2.00504 6.39607,5.66015 7.06752,10.65646 l 0.16546,1.2312 2.17043,0.29385 c 1.19374,0.16162 4.7469,0.58552 7.89591,0.94199 3.14901,0.35648 6.59062,0.82853 7.64803,1.04901 4.16073,0.86753 7.22798,3.03145 8.78766,6.19961 0.76553,1.55501 0.85759,1.98625 0.85759,4.01728 0,2.06361 -0.074,2.39641 -0.79504,3.57744 -0.59709,0.97796 -1.15237,1.48332 -2.23026,2.02977 -1.67013,0.8467 -2.83379,0.91078 -5.94992,0.32765 -2.25107,-0.42125 -9.47756,-1.20435 -9.6416,-1.04482 -0.0528,0.0513 0.30439,0.33464 0.79375,0.62955 9.77998,5.89401 10.83232,6.72169 12.28076,9.65902 3.24042,6.57133 -0.7905,13.65341 -6.81109,11.96664 z m 3.4182,-3.24568 c 1.04124,-0.6564 1.50116,-1.90735 1.49674,-4.071 -0.005,-2.2493 -0.64426,-3.9249 -2.06083,-5.39835 -0.87233,-0.90734 -7.9926,-5.40642 -13.25488,-8.37535 -3.67456,-2.07315 -4.75759,-2.42181 -9.77069,-3.14548 -2.0269,-0.2926 -3.78812,-0.63484 -3.91382,-0.76054 -0.8037,-0.8037 3.91074,-1.40515 8.39284,-1.07073 7.01155,0.52314 15.61074,1.34168 17.99167,1.71258 4.60437,0.71727 4.74733,0.72355 5.66554,0.24872 1.67353,-0.86541 2.0553,-3.53727 0.84454,-5.91056 -0.72664,-1.42431 -2.94737,-3.35727 -4.44231,-3.86665 -1.7618,-0.6003 -4.89092,-1.09515 -11.85735,-1.87517 -7.43164,-0.8321 -9.96514,-1.2864 -12.66674,-2.27135 -3.763,-1.37193 -5.611,-2.91699 -7.91267,-6.61558 -2.11872,-3.4046 -1.60136,-3.52292 1.69361,-0.38733 1.7691,1.68353 2.88944,2.49934 4.53247,3.30044 1.20037,0.58528 2.50991,1.13966 2.9101,1.23197 0.64466,0.14869 0.7276,0.0923 0.7276,-0.49445 0,-0.36424 -0.24997,-1.47159 -0.5555,-2.46076 -0.47039,-1.52295 -0.80481,-2.04603 -2.18281,-3.41426 -2.72354,-2.70423 -5.53853,-3.66146 -10.75544,-3.65738 -4.85153,0.004 -9.01482,0.98118 -13.09687,3.07466 -3.70009,1.89758 -5.76766,4.14976 -8.06258,8.78244 -2.61137,5.27148 -3.44113,9.24091 -2.52168,12.06318 2.17427,6.67392 6.03869,11.41493 12.34192,15.1415 5.79775,3.42773 11.01129,4.28215 16.34774,2.67915 1.87757,-0.564 4.45708,-1.73622 4.1196,-1.87209 -0.14552,-0.0586 -1.81135,-0.67322 -3.70184,-1.36585 -2.56469,-0.93963 -3.46157,-1.38557 -3.53304,-1.7567 -0.0905,-0.47001 0.0623,-0.48843 2.77579,-0.33465 5.77458,0.32725 12.07095,2.7419 23.08764,8.85409 5.06754,2.81153 5.78633,3.00833 7.36125,2.0155 z m -51.01393,-21.65657 c -2.584,-1.85529 -5.79983,-4.90456 -5.79983,-5.49943 0,-0.59886 0.92574,-1.5223 1.52135,-1.51758 0.25466,0.002 1.41552,0.84878 2.57969,1.88169 1.16417,1.03291 2.77151,2.32647 3.57187,2.87458 2.12732,1.45682 2.53305,1.9771 2.22625,2.85484 -0.20128,0.57587 -0.4355,0.73219 -1.17273,0.78267 -0.74701,0.0512 -1.30047,-0.20922 -2.9266,-1.37677 z m 6.63558,-3.65195 c -5.09852,-2.42885 -9.24166,-4.55176 -9.97503,-5.11114 -0.54032,-0.41212 -0.87288,-0.89703 -0.87288,-1.27276 0,-0.64563 0.74015,-1.48275 1.311,-1.48275 0.18881,0 1.48232,0.61585 2.87446,1.36856 1.39215,0.75271 3.99676,2.04804 5.78803,2.87851 1.79127,0.83047 3.43518,1.65795 3.65314,1.83884 0.87272,0.72429 0.10624,2.40264 -1.07976,2.36434 -0.27958,-0.009 -1.04411,-0.27165 -1.69896,-0.5836 z m -3.57187,-8.75946 c -1.89177,-0.62099 -3.82481,-1.33117 -4.29565,-1.57816 -1.12566,-0.5905 -1.39932,-1.60894 -0.63713,-2.37113 0.64129,-0.6413 0.19998,-0.7327 6.09743,1.26287 1.95024,0.65992 3.70641,1.33308 3.9026,1.4959 0.83773,0.69525 0.0364,2.36594 -1.11933,2.33376 -0.27959,-0.008 -2.05615,-0.52224 -3.94792,-1.14324 z m -14.15521,7.41743 c 0,-1.09612 0.87065,-4.58222 1.62951,-6.52462 0.95065,-2.43329 3.13067,-6.55321 4.32871,-8.18064 0.62275,-0.84595 1.68004,-1.99597 2.34953,-2.55559 0.66949,-0.55962 1.21725,-1.11134 1.21725,-1.22605 0,-0.1147 -0.51128,-0.20855 -1.13618,-0.20855 -2.65893,0 -5.5116,2.782 -8.00349,7.80521 -1.92169,3.87378 -2.65198,6.74557 -2.2687,8.92146 0.30871,1.75257 0.88425,2.85249 1.49259,2.85249 0.26665,0 0.39078,-0.28071 0.39078,-0.88371 z"
       style="fill:#070707;stroke-width:0;fill-opacity:1;stroke-miterlimit:4;stroke-dasharray:none;stroke:#000000;stroke-opacity:1" />
  </g>
</svg>
